<svg width="27" height="32" viewBox="0 0 27 32" fill="none" xmlns="http://www.w3.org/2000/svg">
<path d="M22.0578 16.8306C22.021 12.8323 25.4156 10.8871 25.5708 10.7966C23.6483 8.06361 20.6684 7.69021 19.6213 7.66043C17.1185 7.40364 14.6909 9.12057 13.4159 9.12057C12.1156 9.12057 10.1523 7.68524 8.03638 7.72742C5.31352 7.76836 2.76624 9.30541 1.36919 11.6922C-1.51399 16.5589 0.636305 23.7107 3.39861 27.6446C4.7804 29.5711 6.39503 31.7223 8.50843 31.6466C10.576 31.5635 11.3483 30.3614 13.8435 30.3614C16.3157 30.3614 17.0409 31.6466 19.1963 31.5982C21.4153 31.5635 22.8124 29.6629 24.1458 27.719C25.7426 25.5108 26.3839 23.3361 26.4093 23.2245C26.3572 23.2071 22.0998 21.6229 22.0578 16.8306Z" fill="#403F3D"/>
<path d="M17.9863 5.07263C19.0983 3.71671 19.8592 1.872 19.648 0C18.0384 0.0694711 16.0256 1.08549 14.8664 2.41164C13.8409 3.58025 12.9248 5.49566 13.1615 7.29695C14.9695 7.42845 16.8259 6.40747 17.9863 5.07263Z" fill="#403F3D"/>
</svg>
